<?xml version="1.0" encoding="utf-8"?>
<!-- Generator: Adobe Illustrator 18.0.0, SVG Export Plug-In . SVG Version: 6.00 Build 0)  -->
<!DOCTYPE svg PUBLIC "-//W3C//DTD SVG 1.1//EN" "http://www.w3.org/Graphics/SVG/1.1/DTD/svg11.dtd">
<svg version="1.1" id="Layer_1" xmlns="http://www.w3.org/2000/svg" xmlns:xlink="http://www.w3.org/1999/xlink" x="0px" y="0px"
	 viewBox="0 0 64 64" enable-background="new 0 0 64 64" xml:space="preserve">
<g>
	<g>
		<g>
			<path fill="#8CD8F9" d="M32,0c17.7,0,32,14.3,32,32S49.7,64,32,64S0,49.7,0,32S14.3,0,32,0z"/>
		</g>
	</g>
	<g>
		<g>
			<g>
				<g>
					<g>
						<path fill="#E6FAFF" d="M46.5,42.2h-4.9v-2.6h4.9c0.6,0,1.1-0.5,1.1-1.1V26.7c0-0.6-0.5-1.1-1.1-1.1h-4.9v-2.6h4.9
							c2.1,0,3.8,1.7,3.8,3.8v11.7C50.3,40.5,48.6,42.2,46.5,42.2z"/>
					</g>
				</g>
			</g>
			<g>
				<g>
					<path fill="#FFD55F" d="M26.4,18.7h16.1v29.6c0,1.6-1.3,2.8-2.8,2.8H21.5c-1.6,0-2.8-1.3-2.8-2.8V18.7h3.5H26.4z"/>
				</g>
			</g>
			<g>
				<g>
					<path fill="#E6FAFF" d="M39.6,53.7H21.5c-2,0-3.7-1.7-3.7-3.7V17.8h25.6V50C43.3,52,41.7,53.7,39.6,53.7z M19.5,19.6v26.8
						c0,1.1,0.9,1.9,1.9,1.9h18.2c1.1,0,1.9-0.9,1.9-1.9V19.6H19.5z"/>
				</g>
			</g>
			<g>
				<g>
					<g>
						<path fill="#FFB243" d="M23.9,41c-0.5,0-0.9-0.5-0.9-1V28.1c0-0.6,0.4-1,0.9-1s0.9,0.5,0.9,1V40C24.8,40.5,24.4,41,23.9,41z"
							/>
					</g>
				</g>
			</g>
			<g>
				<g>
					<g>
						<path fill="#FFB243" d="M30.3,41c-0.5,0-0.9-0.5-0.9-1V28.1c0-0.6,0.4-1,0.9-1c0.5,0,0.9,0.5,0.9,1V40
							C31.2,40.5,30.8,41,30.3,41z"/>
					</g>
				</g>
			</g>
			<g>
				<g>
					<g>
						<path fill="#FFB243" d="M36.8,41c-0.5,0-0.9-0.5-0.9-1V28.1c0-0.6,0.4-1,0.9-1s0.9,0.5,0.9,1V40C37.6,40.5,37.2,41,36.8,41z"
							/>
					</g>
				</g>
			</g>
		</g>
		<g>
			<g>
				<path fill="#FFFFFF" d="M44.2,15.6c0-2.7-2.2-4.9-4.9-4.9c-1.3,0-2.5,0.5-3.4,1.3c-0.4-0.3-0.9-0.5-1.5-0.5
					c-0.3,0-0.7,0.1-1,0.2c-1.1-1.7-3-2.8-5.2-2.8C26,9,24,10.3,23,12.1c-0.6-0.3-1.4-0.5-2.1-0.5c-2.7,0-4.9,2.2-4.9,4.9
					c0,2.2,1.5,4.1,3.5,4.6V24h15.9v9.7c0,1,0.8,1.8,1.8,1.8s1.8-0.8,1.8-1.8V24h2.6v-4.1C43.1,19.1,44.2,17.5,44.2,15.6z
					 M34.3,16.9C34.3,16.9,34.3,16.9,34.3,16.9c0.1,0,0.2,0,0.3,0c0.1,0,0.1,0,0.2,0c0,0,0,0,0,0h-0.2H34.3z"/>
			</g>
		</g>
	</g>
</g>
</svg>
